<svg height="21px" width="22px" xmlns="http://www.w3.org/2000/svg">
  <path d="M4.065 17.823c.159-.147.318-.293.475-.441 1.774-1.66 3.546-3.323 5.323-4.98a.47.47 0 0 1 .285-.125c2.108-.007 4.215-.005 6.322-.004.028 0 .055.013.147.036-.218.24-.395.473-.612.664-2.917 2.558-6.315 4.165-10.227 4.747-.55.083-1.109.122-1.663.18l-.05-.077zm11.233-10.57L22 .817c-.11.647-.194 1.267-.32 1.88a21.7 21.7 0 0 1-1.378 4.267c-.091.208-.19.295-.44.293-1.424-.013-2.848-.006-4.272-.006h-.292zm-8.693 6.484V10.93c0-.918-.01-1.836.008-2.754a.89.89 0 0 1 .187-.527c.61-.717 1.245-1.417 1.875-2.119.19-.21.393-.408.648-.67.013.16.023.231.024.303 0 1.904.003 3.809-.005 5.713 0 .131-.047.298-.138.387-.81.797-1.633 1.58-2.454 2.367-.027.026-.061.046-.145.108zM19.5 8.555c-.281.414-.539.82-.826 1.205-.307.413-.636.813-.971 1.205a.494.494 0 0 1-.325.163c-2.046.01-4.093.006-6.14.004-.028 0-.058-.01-.127-.025.07-.076.12-.141.18-.196.817-.75 1.633-1.501 2.456-2.245a.526.526 0 0 1 .31-.143c1.77-.008 3.542-.005 5.314-.004.027 0 .054.015.13.036zM5.437 9.895c0 1.326-.056 2.656.02 3.979.048.822-.166 1.432-.84 1.946-.467.356-.858.804-1.284 1.21-.013.013-.033.02-.105.059.26-2.555.877-4.968 2.209-7.194zm-2.119 8.732L.844 21 0 20.309l2.48-2.373.838.69zM21.004.067l-10.487 9.944v-.326c0-1.836.004-3.673-.007-5.51-.001-.224.08-.351.26-.478C13.415 1.853 16.324.62 19.568.155c.467-.067.938-.104 1.408-.155l.03.068z" fill-rule="evenodd"></path>
</svg>
